<svg width="60" height="60" viewBox="0 0 60 60" fill="none" xmlns="http://www.w3.org/2000/svg">
<path d="M18.75 23.4375C18.75 24.1835 18.4537 24.8988 17.9262 25.4263C17.3988 25.9537 16.6834 26.25 15.9375 26.25C15.1916 26.25 14.4762 25.9537 13.9488 25.4263C13.4213 24.8988 13.125 24.1835 13.125 23.4375C13.125 22.6916 13.4213 21.9763 13.9488 21.4488C14.4762 20.9214 15.1916 20.625 15.9375 20.625C16.6834 20.625 17.3988 20.9214 17.9262 21.4488C18.4537 21.9763 18.75 22.6916 18.75 23.4375ZM23.0175 17.8275C25.2443 17.1919 27.5492 16.8713 29.865 16.875C32.3625 16.875 34.7513 17.2388 36.9638 17.8988C37.4366 18.0292 37.9417 17.9692 38.3707 17.7315C38.7998 17.4939 39.1187 17.0976 39.259 16.6277C39.3993 16.1577 39.3498 15.6514 39.1213 15.2175C38.8927 14.7835 38.5032 14.4564 38.0362 14.3063C35.3842 13.5181 32.6316 13.1202 29.865 13.125C27.1125 13.125 24.4613 13.5113 21.9825 14.22C21.5041 14.3573 21.0998 14.679 20.8586 15.1143C20.6174 15.5496 20.559 16.0629 20.6962 16.5413C20.8335 17.0197 21.1552 17.4239 21.5905 17.6652C22.0258 17.9064 22.5391 17.9648 23.0175 17.8275Z" fill="black"/>
<path fill-rule="evenodd" clip-rule="evenodd" d="M29.865 5.7262C18.7012 5.7262 8.9737 12.1162 6.16495 21.1949H4.10245C3.55574 21.1955 3.01577 21.3157 2.52037 21.5469C2.02498 21.7782 1.58614 22.115 1.2346 22.5337C0.883054 22.9524 0.627316 23.4429 0.485299 23.9708C0.343281 24.4988 0.318419 25.0514 0.412454 25.5899L1.36495 31.0649C1.59194 32.3702 2.27236 33.5534 3.2863 34.4062C4.30023 35.2589 5.58261 35.7264 6.90745 35.7262H7.8937C9.0187 37.6499 10.4737 39.3937 12.1875 40.9087L9.4537 50.1974C9.3715 50.4771 9.35564 50.7721 9.40738 51.059C9.45912 51.3459 9.57703 51.6167 9.75176 51.8501C9.92649 52.0834 10.1532 52.2728 10.4139 52.4032C10.6747 52.5336 10.9622 52.6014 11.2537 52.6012H18.7537C19.1406 52.6012 19.518 52.4816 19.8342 52.2587C20.1504 52.0358 20.39 51.7206 20.52 51.3562L22.3275 46.2899C24.7087 46.9387 27.24 47.2912 29.8687 47.2912C32.52 47.2912 35.0737 46.9349 37.4737 46.2712L39.51 51.4162C39.6483 51.7658 39.8885 52.0657 40.1995 52.277C40.5105 52.4883 40.8778 52.6013 41.2537 52.6012H48.7537C49.0463 52.6009 49.3347 52.5321 49.596 52.4004C49.8572 52.2687 50.084 52.0776 50.2582 51.8426C50.4324 51.6075 50.5492 51.335 50.5992 51.0467C50.6492 50.7584 50.6311 50.4624 50.5462 50.1824L47.6925 40.785C51.7875 37.1062 54.375 32.0962 54.375 26.5087C54.375 25.9649 54.3487 25.4212 54.3 24.8924C55.2787 24.4799 56.205 23.8949 56.9437 23.2274C58.125 24.3749 60 24.3749 60 21.6637C60 22.4999 58.125 22.4999 58.2712 21.5662C58.4287 21.2652 58.5424 20.9432 58.6087 20.6099C58.6969 20.1756 58.6737 19.726 58.5412 19.3031C58.4088 18.8801 58.1714 18.4976 57.8512 18.1912C57.5135 17.8431 57.0692 17.6179 56.5888 17.5513C56.1084 17.4847 55.6196 17.5806 55.2 17.8237C54.8141 18.0369 54.485 18.3396 54.2403 18.7063C53.9956 19.073 53.8425 19.4931 53.7937 19.9312C53.7037 20.8424 54.1012 21.7312 54.9937 22.3837C54.684 22.5978 54.3594 22.7895 54.0225 22.9574C52.02 12.9674 41.7075 5.7262 29.865 5.7262ZM9.43495 23.4749C11.1412 15.7274 19.4362 9.4762 29.865 9.4762C41.6625 9.4762 50.625 17.4037 50.625 26.5087C50.625 31.2112 48.285 35.5462 44.3625 38.6887C44.0709 38.9232 43.8562 39.2396 43.7459 39.5971C43.6357 39.9546 43.6349 40.337 43.7437 40.695L46.2187 48.8512H42.525L40.3125 43.2749C40.1343 42.8256 39.7895 42.4624 39.35 42.2612C38.9105 42.0599 38.4103 42.0362 37.9537 42.1949C35.475 43.0574 32.7412 43.5412 29.865 43.5412C27.1124 43.5483 24.3781 43.0932 21.7762 42.1949C21.3092 42.0326 20.7969 42.0613 20.3509 42.2748C19.905 42.4883 19.5614 42.8693 19.395 43.3349L17.4262 48.8512H13.755L16.1287 40.7887C16.2346 40.4294 16.2305 40.0466 16.1169 39.6897C16.0032 39.3328 15.7853 39.0181 15.4912 38.7862C13.4848 37.2333 11.8416 35.2611 10.6762 33.0074C10.5201 32.6977 10.2811 32.4373 9.98586 32.2552C9.69058 32.0731 9.35059 31.9766 9.0037 31.9762H6.9037C6.4627 31.9757 6.03598 31.8198 5.69855 31.5359C5.36111 31.2519 5.13456 30.8581 5.0587 30.4237L4.1062 24.9487H7.60495C8.03226 24.9483 8.44663 24.802 8.77943 24.534C9.11224 24.266 9.34351 23.8924 9.43495 23.4749ZM56.7637 20.2612C56.6969 20.5463 56.5718 20.8144 56.3962 21.0487C56.3401 21.0194 56.2851 20.9882 56.2312 20.9549C55.6837 20.6174 55.6425 20.2987 55.6612 20.1187C55.6797 19.9841 55.7288 19.8556 55.8049 19.7431C55.881 19.6306 55.9819 19.5372 56.1 19.4699C56.2837 19.3687 56.4 19.3912 56.5237 19.5149C56.628 19.6056 56.7054 19.7231 56.7477 19.8546C56.79 19.9861 56.7956 20.1267 56.7637 20.2612Z" fill="black"/>
</svg>
