<svg width="121" height="17" viewBox="0 0 121 17" fill="none" xmlns="http://www.w3.org/2000/svg">
<path d="M4.06197 16.9354C3.62773 17.1598 3.13498 16.7665 3.22273 16.2645L4.15647 10.904L0.19311 7.10066C-0.177014 6.74481 0.0153601 6.0943 0.511484 6.02403L6.02172 5.23526L8.47871 0.331489C8.70034 -0.110496 9.29996 -0.110496 9.52158 0.331489L11.9786 5.23526L17.4888 6.02403C17.9849 6.0943 18.1773 6.74481 17.8061 7.10066L13.8438 10.904L14.7776 16.2645C14.8653 16.7665 14.3726 17.1598 13.9383 16.9354L8.99846 14.3787L4.06197 16.9354Z" fill="#F6BB06"/>
<path d="M30.062 16.9354C29.6277 17.1598 29.135 16.7665 29.2227 16.2645L30.1565 10.904L26.1931 7.10066C25.823 6.74481 26.0154 6.0943 26.5115 6.02403L32.0217 5.23526L34.4787 0.331489C34.7003 -0.110496 35.3 -0.110496 35.5216 0.331489L37.9786 5.23526L43.4888 6.02403C43.9849 6.0943 44.1773 6.74481 43.8061 7.10066L39.8438 10.904L40.7776 16.2645C40.8653 16.7665 40.3726 17.1598 39.9383 16.9354L34.9985 14.3787L30.062 16.9354Z" fill="#F6BB06"/>
<path d="M56.062 16.9354C55.6277 17.1598 55.135 16.7665 55.2227 16.2645L56.1565 10.904L52.1931 7.10066C51.823 6.74481 52.0154 6.0943 52.5115 6.02403L58.0217 5.23526L60.4787 0.331489C60.7003 -0.110496 61.3 -0.110496 61.5216 0.331489L63.9786 5.23526L69.4888 6.02403C69.9849 6.0943 70.1773 6.74481 69.8061 7.10066L65.8438 10.904L66.7776 16.2645C66.8653 16.7665 66.3726 17.1598 65.9383 16.9354L60.9985 14.3787L56.062 16.9354Z" fill="#F6BB06"/>
<path d="M81.062 16.9354C80.6277 17.1598 80.135 16.7665 80.2227 16.2645L81.1565 10.904L77.1931 7.10066C76.823 6.74481 77.0154 6.0943 77.5115 6.02403L83.0217 5.23526L85.4787 0.331489C85.7003 -0.110496 86.3 -0.110496 86.5216 0.331489L88.9786 5.23526L94.4888 6.02403C94.9849 6.0943 95.1773 6.74481 94.8061 7.10066L90.8438 10.904L91.7776 16.2645C91.8653 16.7665 91.3726 17.1598 90.9383 16.9354L85.9985 14.3787L81.062 16.9354Z" fill="#F6BB06"/>
<path d="M107.062 16.9354C106.628 17.1598 106.135 16.7665 106.223 16.2645L107.156 10.904L103.193 7.10066C102.823 6.74481 103.015 6.0943 103.511 6.02403L109.022 5.23526L111.479 0.331489C111.7 -0.110496 112.3 -0.110496 112.522 0.331489L114.979 5.23526L120.489 6.02403C120.985 6.0943 121.177 6.74481 120.806 7.10066L116.844 10.904L117.778 16.2645C117.865 16.7665 117.373 17.1598 116.938 16.9354L111.998 14.3787L107.062 16.9354Z" fill="#F6BB06"/>
</svg>
